# xmcd CD database file generated by Grip 2.95
# 
# Track frame offsets:
#       182
#       14437
#       27710
#       40875
#       68240
#       82257
#       96437
#       111915
#       127347
#       141810
#       156257
#       171392
#       185362
#       200365
#       214745
#       228432
#       243122
#       257152
#       271337
#       285942
#       300120
#       322977
# 
# Disc length: 4483 seconds
# 
# Revision: 3
# Processed by: cddbd v1.4b41PL1 Copyright (c) Steve Scherf et al.
# Submitted via: Grip 2.95
# 
DISCID=41118116
DTITLE=leadbelly - Good morning blues
DYEAR=1900
DGENRE=
TTITLE0=the mignight special
TTITLE1=good morning blues
TTITLE2=fannin street
TTITLE3=frankie and albert
TTITLE4=de kalb blues
TTITLE5=looky looky yonder...
TTITLE6=bourgeois blues
TTITLE7=poor howard green corn
TTITLE8=the boll weevil
TTITLE9=de gallis pole
TTITLE10=ain't goin' down to the well no mo'
TTITLE11=new york city
TTITLE12=didn't old john cross the water
TTITLE13=t.b. blues
TTITLE14=take this hammer
TTITLE15=easy rider
TTITLE16=the grey goose
TTITLE17=don't you love your daddy no more
TTITLE18=alberta
TTITLE19=you can't lose-A me Cholly
TTITLE20=irene
TTITLE21=rock island line
EXTD=
EXTT0=
EXTT1=
EXTT2=
EXTT3=
EXTT4=
EXTT5=
EXTT6=
EXTT7=
EXTT8=
EXTT9=
EXTT10=
EXTT11=
EXTT12=
EXTT13=
EXTT14=
EXTT15=
EXTT16=
EXTT17=
EXTT18=
EXTT19=
EXTT20=
EXTT21=
PLAYORDER=
